<svg xmlns="http://www.w3.org/2000/svg" viewBox="0 0 8.73 8.02"><defs><style>.cls-1{fill:#66657d;}</style></defs><title>logo자산 2</title><g id="레이어_2" data-name="레이어 2"><g id="HEADER"><g id="Double_Quotes_Lower_Part" data-name="Double Quotes Lower Part"><path class="cls-1" d="M0,7.61c1.63-1.43,2.34-2.28,2.34-3.4,0-.51-.2-.85-.68-.85A1.6,1.6,0,0,1,.41,1.73,1.74,1.74,0,0,1,2.07,0C3.09,0,4,.65,4,2.24,4,4.93,2.31,6.56.41,8Zm4.72,0c1.6-1.39,2.35-2.28,2.35-3.43,0-.48-.21-.82-.68-.82A1.59,1.59,0,0,1,5.13,1.73,1.74,1.74,0,0,1,6.79,0c1,0,1.94.65,1.94,2.24C8.73,4.93,7,6.56,5.13,8Z"/></g></g></g></svg>