<svg xmlns="http://www.w3.org/2000/svg" viewBox="0 0 31.64 31.77"><defs><style>.cls-1{fill:#333;}</style></defs><title>자산 5</title><g id="레이어_2" data-name="레이어 2"><g id="CONTACT"><path class="cls-1" d="M9.81,13.71l-2,4.62a.34.34,0,0,1-.32.19h-1a.32.32,0,0,1-.31-.19l-1-2.2-.26-.63-.27.64-1,2.2a.33.33,0,0,1-.31.18h-1a.35.35,0,0,1-.32-.19L0,13.71a.27.27,0,0,1,0-.27.36.36,0,0,1,.28-.13H1.51a.33.33,0,0,1,.32.21l.84,2.35c.07.19.13.38.19.56q.11-.27.24-.57l1-2.36a.34.34,0,0,1,.31-.19h1a.34.34,0,0,1,.31.19l1,2.31c.09.21.16.41.24.59.06-.17.13-.36.2-.57l.91-2.32a.32.32,0,0,1,.31-.2H9.49a.34.34,0,0,1,.28.13A.25.25,0,0,1,9.81,13.71Zm10.9,0-2,4.62a.33.33,0,0,1-.31.19H17.32a.33.33,0,0,1-.31-.19l-1-2.2c-.1-.22-.18-.43-.27-.63-.08.22-.18.43-.27.64l-1,2.2a.33.33,0,0,1-.31.18h-1a.35.35,0,0,1-.32-.19l-1.9-4.62a.27.27,0,0,1,0-.27.37.37,0,0,1,.28-.13h1.17a.33.33,0,0,1,.32.21l.84,2.35c.07.19.13.38.19.56q.11-.27.24-.57l1-2.36a.34.34,0,0,1,.31-.19h1a.34.34,0,0,1,.31.19l1,2.31c.09.21.16.41.24.59l.21-.57.9-2.32a.33.33,0,0,1,.32-.2H20.4a.34.34,0,0,1,.27.13A.25.25,0,0,1,20.71,13.71Zm10.91,0-2,4.62a.32.32,0,0,1-.31.19h-1a.34.34,0,0,1-.32-.19l-1-2.2c-.1-.22-.18-.43-.26-.63-.09.22-.18.43-.28.64l-1,2.2a.34.34,0,0,1-.31.18H24a.33.33,0,0,1-.31-.19l-1.91-4.62a.29.29,0,0,1,0-.27.37.37,0,0,1,.28-.13h1.17a.33.33,0,0,1,.32.21l.84,2.35c.07.19.13.38.19.56.08-.18.15-.37.24-.57l1-2.36a.34.34,0,0,1,.31-.19h1a.35.35,0,0,1,.32.19l1,2.31c.09.21.17.41.24.59l.21-.57.9-2.32a.34.34,0,0,1,.32-.2H31.3a.36.36,0,0,1,.28.13A.27.27,0,0,1,31.62,13.71Z"/><path class="cls-1" d="M3.24,11a13.39,13.39,0,0,1,1.3-2.49,1.43,1.43,0,0,0,.22,0h2.3A25.07,25.07,0,0,0,6.46,11H9a19.46,19.46,0,0,1,.69-2.45h12.2A19.46,19.46,0,0,1,22.55,11h2.51a22.49,22.49,0,0,0-.6-2.45h2.3a1.85,1.85,0,0,0,.23,0A14,14,0,0,1,28.28,11h2.59A15.88,15.88,0,0,0,.65,11ZM25,6.11H23.51a18.32,18.32,0,0,0-1-1.86A14.17,14.17,0,0,1,25,6.11Zm-9.2-3.67c1.9,0,3.65,1.41,5,3.67H10.8C12.11,3.85,13.86,2.44,15.76,2.44ZM9.05,4.25A18.32,18.32,0,0,0,8,6.11H6.56A14.17,14.17,0,0,1,9.05,4.25Z"/><path class="cls-1" d="M28.28,20.78A14.32,14.32,0,0,1,27,23.27a1,1,0,0,0-.23-.05h-2.3a24.86,24.86,0,0,0,.6-2.44H22.55a19.31,19.31,0,0,1-.69,2.44H9.66A19.31,19.31,0,0,1,9,20.78H6.46a24.86,24.86,0,0,0,.6,2.44H4.76a.79.79,0,0,0-.22.05,13.71,13.71,0,0,1-1.3-2.49H.65a15.88,15.88,0,0,0,30.22,0ZM6.56,25.66H8a16.38,16.38,0,0,0,1,1.86A13.69,13.69,0,0,1,6.56,25.66Zm9.2,3.67c-1.9,0-3.65-1.41-5-3.67h9.92C19.41,27.92,17.66,29.33,15.76,29.33Zm6.71-1.81a16.38,16.38,0,0,0,1-1.86H25A13.69,13.69,0,0,1,22.47,27.52Z"/></g></g></svg>