<svg xmlns="http://www.w3.org/2000/svg" viewBox="0 0 8.7 8.02"><defs><style>.cls-1{fill:#66657d;}</style></defs><title>logo자산 1</title><g id="레이어_2" data-name="레이어 2"><g id="HEADER"><g id="Double_Quotes_Upper_Part" data-name="Double Quotes Upper Part"><path class="cls-1" d="M4,.41C1.9,2.21,1.63,3,1.63,3.77c0,.51.2.88.71.88A1.57,1.57,0,0,1,3.57,6.28,1.76,1.76,0,0,1,1.9,8C.88,8,0,7.37,0,5.77,0,3.09,1.7,1.46,3.57,0ZM8.7.41C6.62,2.21,6.35,3,6.35,3.77c0,.51.21.88.71.88A1.59,1.59,0,0,1,8.32,6.28,1.79,1.79,0,0,1,6.62,8c-1,0-1.9-.65-1.9-2.25,0-2.68,1.7-4.31,3.6-5.77Z"/></g></g></g></svg>