<?xml version="1.0" encoding="utf-8"?>
<!-- Generator: Adobe Illustrator 16.0.0, SVG Export Plug-In . SVG Version: 6.00 Build 0)  -->
<!DOCTYPE svg PUBLIC "-//W3C//DTD SVG 1.1//EN" "http://www.w3.org/Graphics/SVG/1.1/DTD/svg11.dtd">
<svg version="1.1" xmlns="http://www.w3.org/2000/svg" xmlns:xlink="http://www.w3.org/1999/xlink" x="0px" y="0px" width="400px"
	 height="400px" viewBox="0 0 400 400" enable-background="new 0 0 400 400" xml:space="preserve">
<g id="Background">
	<rect fill="#333333" width="400" height="400"/>
</g>
<g id="Back_H">
</g>
<g id="Front_H">
	<g>
		<polygon fill="none" points="166.953,129.192 166.953,122.904 143.752,122.904 143.752,259.101 149.54,259.101 149.54,129.192 		
			"/>
		<polygon fill="none" points="226.777,209.589 226.94,259.118 232.698,259.159 232.535,209.589 		"/>
		<polygon fill="none" points="226.939,122.904 226.739,177.304 177.74,177.304 177.74,183.591 232.535,183.591 232.735,129.192 
			249.948,129.192 249.948,122.904 		"/>
		<rect x="171.953" y="129.192" fill="#E1E0E6" width="5.787" height="43.112"/>
		<polygon fill="#E1E0E6" points="232.535,183.591 177.74,183.591 177.74,177.304 166.953,177.304 166.953,129.192 149.54,129.192 
			149.54,259.101 166.953,259.101 166.953,198.301 226.74,198.301 226.777,209.589 232.535,209.589 232.698,259.159 
			249.948,259.282 249.948,129.192 232.735,129.192 		"/>
		<polygon fill="#E1E0E6" points="171.953,203.3 171.953,264.101 149.54,264.101 149.54,270.388 177.74,270.388 177.74,209.589 
			221.776,209.589 221.756,203.3 		"/>
		<polygon fill="#E1E0E6" points="254.948,129.192 254.948,264.317 232.715,264.159 232.735,270.388 260.735,270.589 
			260.735,129.192 		"/>
		<polygon fill="#8A6CB8" points="226.739,177.304 226.939,122.904 249.948,122.904 249.948,129.192 254.948,129.192 
			254.948,117.904 221.957,117.904 221.757,172.304 177.74,172.304 177.74,177.304 		"/>
		<polygon fill="#8A6CB8" points="143.752,259.101 143.752,122.904 166.953,122.904 166.953,129.192 171.953,129.192 
			171.953,117.904 138.752,117.904 138.752,264.101 149.54,264.101 149.54,259.101 		"/>
		<polygon fill="#8A6CB8" points="226.94,259.118 226.777,209.589 221.776,209.589 221.956,264.083 232.715,264.159 
			232.698,259.159 		"/>
		<polygon fill="#676680" points="254.948,129.192 249.948,129.192 249.948,259.282 232.698,259.159 232.715,264.159 
			254.948,264.317 		"/>
		<polygon fill="#676680" points="226.74,198.301 166.953,198.301 166.953,259.101 149.54,259.101 149.54,264.101 171.953,264.101 
			171.953,203.3 221.756,203.3 221.776,209.589 226.777,209.589 		"/>
		<polygon fill="#676680" points="166.953,177.304 177.74,177.304 177.74,172.304 171.953,172.304 171.953,129.192 166.953,129.192 
					"/>
	</g>
</g>
</svg>
