<?xml version="1.0" encoding="utf-8"?>
<!-- Generator: Adobe Illustrator 16.0.0, SVG Export Plug-In . SVG Version: 6.00 Build 0)  -->
<!DOCTYPE svg PUBLIC "-//W3C//DTD SVG 1.1//EN" "http://www.w3.org/Graphics/SVG/1.1/DTD/svg11.dtd">
<svg version="1.1" xmlns="http://www.w3.org/2000/svg" xmlns:xlink="http://www.w3.org/1999/xlink" x="0px" y="0px" width="400px"
	 height="400px" viewBox="0 0 400 400" enable-background="new 0 0 400 400" xml:space="preserve">
<g id="Background">
</g>
<g id="Back_H">
</g>
<g id="Front_H">
	<g>
		<polygon fill="none" points="114.466,29.02 114.466,12.522 53.597,12.522 53.597,369.858 68.78,369.858 68.78,29.02 		"/>
		<polygon fill="none" points="271.427,239.955 271.854,369.905 286.962,370.013 286.534,239.955 		"/>
		<polygon fill="none" points="271.852,12.522 271.327,155.25 142.768,155.25 142.768,171.747 286.534,171.747 287.059,29.02 
			332.22,29.02 332.22,12.522 		"/>
		<rect x="127.584" y="29.02" fill="#E1E0E6" width="15.184" height="113.112"/>
		<polygon fill="#E1E0E6" points="286.534,171.747 142.768,171.747 142.768,155.25 114.466,155.25 114.466,29.02 68.78,29.02 
			68.78,369.858 114.466,369.858 114.466,210.341 271.33,210.341 271.427,239.955 286.534,239.955 286.962,370.013 332.22,370.335 
			332.22,29.02 287.059,29.02 		"/>
		<polygon fill="#E1E0E6" points="127.584,223.455 127.584,382.977 68.78,382.977 68.78,399.472 142.768,399.472 142.768,239.955 
			258.306,239.955 258.252,223.455 		"/>
		<polygon fill="#E1E0E6" points="345.339,29.02 345.339,383.546 287.005,383.131 287.059,399.472 360.521,400 360.521,29.02 		"/>
		<polygon fill="#8A6CB8" points="271.327,155.25 271.852,12.522 332.22,12.522 332.22,29.02 345.339,29.02 345.339,-0.596 
			258.78,-0.596 258.255,142.132 142.768,142.132 142.768,155.25 		"/>
		<polygon fill="#8A6CB8" points="53.597,369.858 53.597,12.522 114.466,12.522 114.466,29.02 127.584,29.02 127.584,-0.596 
			40.478,-0.596 40.478,382.977 68.78,382.977 68.78,369.858 		"/>
		<polygon fill="#8A6CB8" points="271.854,369.905 271.427,239.955 258.306,239.955 258.778,382.931 287.005,383.131 
			286.962,370.013 		"/>
		<polygon fill="#676680" points="345.339,29.02 332.22,29.02 332.22,370.335 286.962,370.013 287.005,383.131 345.339,383.546 		
			"/>
		<polygon fill="#676680" points="271.33,210.341 114.466,210.341 114.466,369.858 68.78,369.858 68.78,382.977 127.584,382.977 
			127.584,223.455 258.252,223.455 258.306,239.955 271.427,239.955 		"/>
		<polygon fill="#676680" points="114.466,155.25 142.768,155.25 142.768,142.132 127.584,142.132 127.584,29.02 114.466,29.02 		
			"/>
	</g>
</g>
</svg>
